<?xml version="1.0" encoding="UTF-8"?>
<svg id="Layer_1" data-name="Layer 1" xmlns="http://www.w3.org/2000/svg" viewBox="0 0 120 24">
  <defs>
    <style>
      .cls-1 {
        fill: #0d0d0d;
      }

      .cls-1, .cls-2 {
        stroke-width: 0px;
      }

      .cls-2 {
        fill: #090909;
      }
    </style>
  </defs>
  <path class="cls-1" d="m76.25,14.31c0-2.2,0-4.41,0-6.61,0-.61.08-.69.7-.68,2.26,0,4.53,0,6.79,0,.43,0,.85.05,1.25.18.75.25,1.08.72,1.08,1.5,0,3.81,0,7.61,0,11.42,0,.97-.35,1.38-1.31,1.5-.27.04-.54.04-.81.04-2.35,0-4.69.01-7.04.01-.56,0-.66-.1-.66-.66,0-2.24,0-4.48,0-6.72,0,0,0,0,0,0Zm2.08.05s0,0,0,0c0,1.51,0,3.02,0,4.52,0,.28.09.32.34.32,1.64,0,3.28,0,4.92,0,.55,0,.59-.04.59-.58,0-2.84,0-5.68,0-8.52,0-.53-.06-.59-.59-.58-1.64,0-3.28.02-4.91.02-.25,0-.34.05-.33.32.02,1.5,0,2.99,0,4.49Z"/>
  <path class="cls-1" d="m101.82,11.69c0-1.35,0-2.64,0-3.94,0-.5.1-.59.6-.59.27,0,.54,0,.81.02.42.04.56.19.58.61.03.58.03,1.15.03,1.73,0,1.31,0,2.62,0,3.92,0,.22.07.37.21.53.97,1.05,2.1,1.92,3.08,2.95.18.19.2.28,0,.46-.3.27-.56.57-.85.85-.34.34-.5.34-.83,0-.46-.46-.91-.92-1.37-1.38-.06-.06-.12-.11-.18-.16-.03.02-.06.04-.06.05-.01.81-.09,1.63,0,2.43.08.77.04,1.53.08,2.29.02.26-.07.35-.33.34-.4-.02-.8,0-1.2,0-.46,0-.58-.12-.58-.59,0-2.1,0-4.19,0-6.29,0-.24-.06-.41-.24-.59-1.19-1.17-2.37-2.36-3.55-3.55-.08-.08-.17-.16-.26-.24-.12.12-.06.26-.06.38,0,2.59-.01,5.18-.01,7.78,0,.22-.05.41-.15.61-.39.74-.78,1.48-1.16,2.22-.08.16-.16.28-.37.23-.2-.04-.32-.15-.35-.35-.02-.1-.01-.21-.01-.32,0-4.42,0-8.84,0-13.26,0-.67.08-.74.75-.74.14,0,.28,0,.42,0,.35.02.69.04.83.45.02.05.07.09.12.13,1.3,1.3,2.6,2.6,3.9,3.9.02.02.05.04.12.09Z"/>
  <path class="cls-1" d="m69.2,7.02c1.41,0,2.83,0,4.24,0,.59,0,.66.07.66.68,0,.25,0,.5-.02.74-.05.41-.2.55-.62.57-.42.02-.85.01-1.27.01-1.73,0-3.46,0-5.2,0-.55,0-.62.05-.62.59,0,1.14,0,2.29,0,3.43,0,.52.09.61.62.6,1.78,0,3.56-.01,5.34-.02.08,0,.16,0,.25,0,.32,0,.49.15.48.47,0,.33-.01.66-.03.99-.02.36-.2.56-.57.59-.95.08-1.91.03-2.86.03-.98,0-1.96.01-2.93,0-.23,0-.3.06-.29.29.01,1.01,0,2.03,0,3.04,0,.49.08.57.58.57,2.17,0,4.34-.01,6.51-.02.61,0,.66.04.65.67,0,.28,0,.57-.03.85-.03.31-.21.49-.53.52-.23.02-.47.04-.71.04-2.64,0-5.28,0-7.92,0-.52,0-.63-.11-.63-.65,0-1.8.02-3.61.02-5.41,0-2.63-.02-5.25-.03-7.88,0-.63.09-.72.71-.72,1.4,0,2.81,0,4.21,0Z"/>
  <path class="cls-1" d="m24.17,6.43c.59.36,1.18.73,1.77,1.09,2.13,1.33,4.26,2.65,6.38,3.99.36.23.65.22,1-.02,1.11-.75,2.24-1.48,3.36-2.22.08-.06.16-.17.28-.11.12.05.07.18.07.28,0,2.99,0,5.98.01,8.98,0,.52-.16.85-.63,1.1-1.07.58-2.13,1.2-3.18,1.84-.39.24-.71.25-1.1,0-2.5-1.58-5-3.14-7.52-4.69-.39-.24-.56-.54-.55-1.01.02-2.91.01-5.82.02-8.73,0-.16-.04-.33.1-.49Zm1.38,3.18c0,1.78,0,3.49,0,5.2,0,.3.18.5.42.65,2.02,1.23,4.08,2.4,6.02,3.76.51.36,1.06.37,1.6.07.44-.25.87-.52,1.32-.75.33-.17.47-.42.47-.79-.01-1.69,0-3.37-.01-5.06,0-.08.05-.18-.07-.27-.7.44-1.42.87-2.12,1.32-.33.21-.62.22-.95,0-1.25-.78-2.5-1.55-3.75-2.33-.95-.59-1.91-1.17-2.93-1.8Z"/>
  <path class="cls-1" d="m62.08,7.02c-.61,1.09-1.18,2.12-1.76,3.14-.98,1.76-1.96,3.51-2.94,5.27-.19.34-.19.34.2.34.48,0,.97,0,1.45,0,.26,0,.42.08.52.32.81,1.78,1.62,3.55,2.44,5.32.1.21.05.26-.17.26-.54-.01-1.08-.01-1.63,0-.29,0-.44-.12-.56-.38-.76-1.66-1.53-3.31-2.3-4.96-.05-.11-.06-.29-.21-.29-.13,0-.19.15-.26.27-.87,1.56-1.75,3.12-2.6,4.69-.27.5-.62.74-1.19.67-.26-.03-.52-.03-.77-.06-.27-.03-.42-.2-.45-.47-.03-.3-.05-.61-.05-.92,0-4.16,0-8.32,0-12.48,0-.64.1-.75.73-.74.29,0,.59,0,.88.06.27.06.41.22.43.48.02.25.03.49.03.74,0,2.98,0,5.96,0,8.94,0,.1-.08.27.07.3.14.03.2-.12.27-.23,1.8-3.25,3.61-6.5,5.42-9.75.22-.39.52-.58.98-.55.47.03.94,0,1.47,0Z"/>
  <path class="cls-2" d="m39.63,14.33c0-2.23,0-4.45,0-6.68,0-.51.11-.62.62-.62,2.86,0,5.73,0,8.59,0,.5,0,.61.1.61.59,0,.24,0,.47-.02.71-.04.54-.19.69-.72.7-.9.02-1.79.03-2.69.03-1.24,0-2.48-.01-3.71-.02-.52,0-.61.08-.61.58,0,3.15,0,6.29,0,9.44,0,.48.09.58.58.58,2.12,0,4.24,0,6.37-.02.81,0,.82,0,.82.83,0,.24-.02.47-.04.7-.03.28-.19.45-.48.49-.2.03-.4.05-.6.05-2.69,0-5.38.01-8.06.01-.53,0-.64-.11-.64-.64,0-2.24,0-4.48,0-6.72Z"/>
  <path class="cls-2" d="m14.21,14.34c0-2.21,0-4.43,0-6.64,0-.61.07-.68.66-.67.28,0,.56,0,.85.04.32.06.48.24.49.55.02.33.03.66.03.99,0,3.39-.01,6.78-.02,10.18,0,.74.09.84.83.84,1.76,0,3.51-.01,5.27-.02.58,0,.66.08.64.65,0,.28,0,.57-.03.85-.03.32-.21.52-.54.54-.19.02-.38.03-.56.03-2.32,0-4.64.01-6.96.01-.54,0-.65-.1-.65-.63,0-2.24,0-4.48,0-6.71Z"/>
  <path class="cls-2" d="m92.06,14.56c0,2.26,0,4.53,0,6.79,0,.25-.05.36-.33.34-.39-.03-.78,0-1.17,0-.4-.01-.53-.14-.54-.54,0-.66.02-1.32.02-1.98,0-3.79-.01-7.59-.02-11.38,0-.7.07-.77.77-.76.26,0,.52,0,.77.05.31.06.45.24.47.53.02.22.02.45.02.67,0,2.1,0,4.2,0,6.29,0,0-.01,0-.02,0Z"/>
  <path class="cls-1" d="m33.86,6.79c0,.6,0,1.2,0,1.8,0,.59-.27.87-.83.85-.38-.01-.63-.2-.68-.58-.05-.31-.06-.63-.07-.95-.02-.98-.03-1.96-.15-2.93-.14-1.1-.76-1.86-1.8-2.24-.81-.3-1.42.12-1.44.99-.02.74.01,1.48,0,2.23,0,.58-.34.86-.91.79-.33-.04-.56-.23-.57-.57-.03-.87-.17-1.74-.1-2.61.1-1.22.83-2.18,1.9-2.45.67-.17,1.32-.08,1.93.21,1.53.73,2.42,1.95,2.56,3.66.05.6,0,1.2,0,1.8.05,0,.1,0,.15,0Z"/>
</svg>