<?xml version="1.0" encoding="utf-8"?>
<!-- Generator: Adobe Illustrator 27.9.0, SVG Export Plug-In . SVG Version: 6.00 Build 0)  -->
<svg width="120" height="24" viewBox="0 0 120 24" style="enable-background:new 0 0 120 24;" xmlns="http://www.w3.org/2000/svg" xmlns:xlink="http://www.w3.org/1999/xlink">
<style type="text/css">
	.st0{fill:#0D0D0D;}
	.st1{fill:#090909;}
</style>
<g>
	<path class="st0" d="M75.5,14.3c0-2.2,0-4.4,0-6.6c0-0.6,0.1-0.7,0.7-0.7c2.3,0,4.5,0,6.8,0c0.4,0,0.8,0,1.3,0.2
		c0.8,0.3,1.1,0.7,1.1,1.5c0,3.8,0,7.6,0,11.4c0,1-0.3,1.4-1.3,1.5c-0.3,0-0.5,0-0.8,0c-2.3,0-4.7,0-7,0c-0.6,0-0.7-0.1-0.7-0.7
		C75.5,18.8,75.5,16.6,75.5,14.3C75.5,14.3,75.5,14.3,75.5,14.3z M77.6,14.4C77.6,14.4,77.6,14.4,77.6,14.4c0,1.5,0,3,0,4.5
		c0,0.3,0.1,0.3,0.3,0.3c1.6,0,3.3,0,4.9,0c0.5,0,0.6,0,0.6-0.6c0-2.8,0-5.7,0-8.5c0-0.5-0.1-0.6-0.6-0.6c-1.6,0-3.3,0-4.9,0
		c-0.3,0-0.3,0-0.3,0.3C77.6,11.4,77.6,12.9,77.6,14.4z"/>
	<path class="st0" d="M101.1,11.7c0-1.3,0-2.6,0-3.9c0-0.5,0.1-0.6,0.6-0.6c0.3,0,0.5,0,0.8,0c0.4,0,0.6,0.2,0.6,0.6
		c0,0.6,0,1.2,0,1.7c0,1.3,0,2.6,0,3.9c0,0.2,0.1,0.4,0.2,0.5c1,1,2.1,1.9,3.1,3c0.2,0.2,0.2,0.3,0,0.5c-0.3,0.3-0.6,0.6-0.8,0.9
		c-0.3,0.3-0.5,0.3-0.8,0c-0.5-0.5-0.9-0.9-1.4-1.4c-0.1-0.1-0.1-0.1-0.2-0.2c0,0-0.1,0-0.1,0c0,0.8-0.1,1.6,0,2.4
		c0.1,0.8,0,1.5,0.1,2.3c0,0.3-0.1,0.4-0.3,0.3c-0.4,0-0.8,0-1.2,0c-0.5,0-0.6-0.1-0.6-0.6c0-2.1,0-4.2,0-6.3c0-0.2-0.1-0.4-0.2-0.6
		c-1.2-1.2-2.4-2.4-3.6-3.5c-0.1-0.1-0.2-0.2-0.3-0.2c-0.1,0.1-0.1,0.3-0.1,0.4c0,2.6,0,5.2,0,7.8c0,0.2,0,0.4-0.1,0.6
		c-0.4,0.7-0.8,1.5-1.2,2.2c-0.1,0.2-0.2,0.3-0.4,0.2c-0.2,0-0.3-0.1-0.3-0.3c0-0.1,0-0.2,0-0.3c0-4.4,0-8.8,0-13.3
		c0-0.7,0.1-0.7,0.8-0.7c0.1,0,0.3,0,0.4,0c0.3,0,0.7,0,0.8,0.4C97,7.6,97,7.7,97,7.7c1.3,1.3,2.6,2.6,3.9,3.9
		C101,11.6,101,11.6,101.1,11.7z"/>
	<path class="st0" d="M68.4,7c1.4,0,2.8,0,4.2,0c0.6,0,0.7,0.1,0.7,0.7c0,0.2,0,0.5,0,0.7c0,0.4-0.2,0.6-0.6,0.6c-0.4,0-0.8,0-1.3,0
		c-1.7,0-3.5,0-5.2,0c-0.6,0-0.6,0.1-0.6,0.6c0,1.1,0,2.3,0,3.4c0,0.5,0.1,0.6,0.6,0.6c1.8,0,3.6,0,5.3,0c0.1,0,0.2,0,0.2,0
		c0.3,0,0.5,0.2,0.5,0.5c0,0.3,0,0.7,0,1c0,0.4-0.2,0.6-0.6,0.6c-1,0.1-1.9,0-2.9,0c-1,0-2,0-2.9,0c-0.2,0-0.3,0.1-0.3,0.3
		c0,1,0,2,0,3c0,0.5,0.1,0.6,0.6,0.6c2.2,0,4.3,0,6.5,0c0.6,0,0.7,0,0.7,0.7c0,0.3,0,0.6,0,0.8c0,0.3-0.2,0.5-0.5,0.5
		c-0.2,0-0.5,0-0.7,0c-2.6,0-5.3,0-7.9,0c-0.5,0-0.6-0.1-0.6-0.7c0-1.8,0-3.6,0-5.4c0-2.6,0-5.3,0-7.9c0-0.6,0.1-0.7,0.7-0.7
		C65.6,7,67,7,68.4,7z"/>
	<path class="st0" d="M23.4,6.4c0.6,0.4,1.2,0.7,1.8,1.1c2.1,1.3,4.3,2.6,6.4,4c0.4,0.2,0.7,0.2,1,0c1.1-0.8,2.2-1.5,3.4-2.2
		c0.1-0.1,0.2-0.2,0.3-0.1c0.1,0.1,0.1,0.2,0.1,0.3c0,3,0,6,0,9c0,0.5-0.2,0.8-0.6,1.1c-1.1,0.6-2.1,1.2-3.2,1.8
		c-0.4,0.2-0.7,0.2-1.1,0c-2.5-1.6-5-3.1-7.5-4.7c-0.4-0.2-0.6-0.5-0.6-1c0-2.9,0-5.8,0-8.7C23.3,6.8,23.3,6.6,23.4,6.4z M24.8,9.6
		c0,1.8,0,3.5,0,5.2c0,0.3,0.2,0.5,0.4,0.7c2,1.2,4.1,2.4,6,3.8c0.5,0.4,1.1,0.4,1.6,0.1c0.4-0.2,0.9-0.5,1.3-0.8
		c0.3-0.2,0.5-0.4,0.5-0.8c0-1.7,0-3.4,0-5.1c0-0.1,0-0.2-0.1-0.3c-0.7,0.4-1.4,0.9-2.1,1.3c-0.3,0.2-0.6,0.2-0.9,0
		c-1.2-0.8-2.5-1.6-3.8-2.3C26.8,10.8,25.8,10.2,24.8,9.6z"/>
	<path class="st0" d="M61.3,7c-0.6,1.1-1.2,2.1-1.8,3.1c-1,1.8-2,3.5-2.9,5.3c-0.2,0.3-0.2,0.3,0.2,0.3c0.5,0,1,0,1.4,0
		c0.3,0,0.4,0.1,0.5,0.3c0.8,1.8,1.6,3.6,2.4,5.3c0.1,0.2,0.1,0.3-0.2,0.3c-0.5,0-1.1,0-1.6,0c-0.3,0-0.4-0.1-0.6-0.4
		c-0.8-1.7-1.5-3.3-2.3-5c-0.1-0.1-0.1-0.3-0.2-0.3c-0.1,0-0.2,0.2-0.3,0.3c-0.9,1.6-1.8,3.1-2.6,4.7c-0.3,0.5-0.6,0.7-1.2,0.7
		c-0.3,0-0.5,0-0.8-0.1c-0.3,0-0.4-0.2-0.4-0.5c0-0.3,0-0.6-0.1-0.9c0-4.2,0-8.3,0-12.5c0-0.6,0.1-0.7,0.7-0.7c0.3,0,0.6,0,0.9,0.1
		c0.3,0.1,0.4,0.2,0.4,0.5c0,0.2,0,0.5,0,0.7c0,3,0,6,0,8.9c0,0.1-0.1,0.3,0.1,0.3c0.1,0,0.2-0.1,0.3-0.2c1.8-3.3,3.6-6.5,5.4-9.7
		c0.2-0.4,0.5-0.6,1-0.6C60.3,7,60.8,7,61.3,7z"/>
	<path class="st1" d="M38.9,14.3c0-2.2,0-4.5,0-6.7C38.9,7.1,39,7,39.5,7c2.9,0,5.7,0,8.6,0c0.5,0,0.6,0.1,0.6,0.6
		c0,0.2,0,0.5,0,0.7C48.6,8.9,48.5,9,48,9c-0.9,0-1.8,0-2.7,0c-1.2,0-2.5,0-3.7,0C41,9,41,9.1,40.9,9.6c0,3.1,0,6.3,0,9.4
		c0,0.5,0.1,0.6,0.6,0.6c2.1,0,4.2,0,6.4,0c0.8,0,0.8,0,0.8,0.8c0,0.2,0,0.5,0,0.7c0,0.3-0.2,0.5-0.5,0.5c-0.2,0-0.4,0-0.6,0
		c-2.7,0-5.4,0-8.1,0c-0.5,0-0.6-0.1-0.6-0.6C38.9,18.8,38.9,16.6,38.9,14.3z"/>
	<path class="st1" d="M13.5,14.3c0-2.2,0-4.4,0-6.6c0-0.6,0.1-0.7,0.7-0.7c0.3,0,0.6,0,0.8,0c0.3,0.1,0.5,0.2,0.5,0.5
		c0,0.3,0,0.7,0,1c0,3.4,0,6.8,0,10.2c0,0.7,0.1,0.8,0.8,0.8c1.8,0,3.5,0,5.3,0c0.6,0,0.7,0.1,0.6,0.7c0,0.3,0,0.6,0,0.8
		c0,0.3-0.2,0.5-0.5,0.5c-0.2,0-0.4,0-0.6,0c-2.3,0-4.6,0-7,0c-0.5,0-0.6-0.1-0.6-0.6C13.5,18.8,13.5,16.6,13.5,14.3z"/>
	<path class="st1" d="M91.3,14.6c0,2.3,0,4.5,0,6.8c0,0.3,0,0.4-0.3,0.3c-0.4,0-0.8,0-1.2,0c-0.4,0-0.5-0.1-0.5-0.5c0-0.7,0-1.3,0-2
		c0-3.8,0-7.6,0-11.4C89.3,7.1,89.4,7,90,7c0.3,0,0.5,0,0.8,0c0.3,0.1,0.4,0.2,0.5,0.5c0,0.2,0,0.4,0,0.7
		C91.3,10.4,91.3,12.5,91.3,14.6C91.3,14.6,91.3,14.6,91.3,14.6z"/>
	<path class="st0" d="M33.1,6.8c0,0.6,0,1.2,0,1.8c0,0.6-0.3,0.9-0.8,0.8c-0.4,0-0.6-0.2-0.7-0.6c0-0.3-0.1-0.6-0.1-0.9
		c0-1,0-2-0.2-2.9c-0.1-1.1-0.8-1.9-1.8-2.2c-0.8-0.3-1.4,0.1-1.4,1c0,0.7,0,1.5,0,2.2c0,0.6-0.3,0.9-0.9,0.8
		c-0.3,0-0.6-0.2-0.6-0.6c0-0.9-0.2-1.7-0.1-2.6c0.1-1.2,0.8-2.2,1.9-2.5C29.1,1,29.8,1,30.4,1.3C31.9,2.1,32.8,3.3,33,5
		c0,0.6,0,1.2,0,1.8C33,6.8,33.1,6.8,33.1,6.8z"/>
</g>
</svg>
